<svg xmlns="http://www.w3.org/2000/svg" width="512" height="512" viewBox="0 0 512 512">
  <rect width="512" height="512" rx="128" fill="#10b981"/>
  <g transform="translate(128 128) scale(0.5)">
    <path d="M256 20C120 20 10 130 10 266c0 46 13 91 36 130L10 510l118-31c38 21 81 32 125 32 139 0 249-110 249-246C502 130 392 20 256 20zm0 448c-40 0-79-11-113-32l-8-5-83 22 22-81-5-8c-23-37-35-79-35-123 0-112 92-203 205-203s205 91 205 203-92 204-205 204zm112-154c-6-3-36-18-42-20s-10-3-14 3-16 20-20 24-7 4-13 1-26-10-50-31c-18-16-31-36-35-43s0-10 4-12c4-4 9-10 13-14s5-8 8-13-1-10-2-14c-2-4-14-35-20-48-5-12-10-10-14-10h-12c-4 0-10 1-16 7s-21 20-21 50 21 58 24 62 42 64 102 89c14 6 25 10 34 12 14 5 27 4 37 3 11-2 36-15 41-29s5-26 4-29c-2-2-6-4-12-7z" fill="white"/>
  </g>
</svg>
